<?xml version="1.0" encoding="UTF-8" standalone="no"?>
<svg
   width="72.050964"
   height="112.68323"
   viewBox="0 0 72.050964 112.68323"
   version="1.1"
   id="svg2"
   xmlns="http://www.w3.org/2000/svg"
   xmlns:svg="http://www.w3.org/2000/svg">
  <defs
     id="defs2" />
  <title
     id="title1">svelte-logo</title>
  <g
     id="g2"
     transform="matrix(0.89629603,0,0,0.89629603,-61.374188,-36.848282)">
    <path
       style="display:inline;fill:#61c9b7;fill-opacity:1"
       d="M 147.71918,136.03189 C 90.001557,135.73282 79.732865,106.93451 77.910582,97.231112 c -4.095325,7.532068 -6.068388,12.263968 -7.505859,17.339848 -3.100571,10.94848 -2.452242,21.50973 1.859375,30.26172 3.557583,7.22141 10.272422,13.93601 17.648437,17.65039 3.183163,1.60297 8.215137,3.29666 11.029295,3.71289 1.31275,0.19417 2.7475,0.4061 3.1875,0.4707 0.44,0.0646 2.2432,0.13811 4.00782,0.16211 11.40903,0.15496 21.91032,-4.25258 29.74023,-12.48047 5.13549,-5.39652 8.11528,-10.8895 9.8418,-18.31641 z"
       id="path12" />
    <path
       style="display:inline;fill:#ffffff;fill-opacity:1"
       d="m 79.857848,112.30924 c 0.176421,-0.0203 0.200212,1.28187 0.07031,3.85352 -0.365828,7.2423 0.930144,13.83331 3.871094,19.69335 5.485758,10.93074 15.693434,17.58957 27.777348,18.1211 4.74665,0.20879 7.76404,-0.18576 11.73242,-1.53516 1.46151,-0.49697 2.72899,-0.83843 2.84961,-0.76758 l 0.002,0.002 0.002,0.002 c 0.26144,0.26144 -1.28419,1.72398 -3.08594,2.91992 -2.08143,1.38157 -4.79914,2.51018 -8.03711,3.33984 -2.33281,0.59773 -8.82785,1.05917 -10.5918,0.75196 -8.502771,-1.48085 -14.188925,-4.12692 -19.136719,-8.9043 -7.08096,-6.83707 -10.336157,-17.47313 -8.521485,-27.84766 0.502398,-2.87222 2.441372,-9.01754 3.03125,-9.60742 0.01312,-0.0131 0.02535,-0.0201 0.03711,-0.0215 z"
       id="path14" />
    <path
       id="path11"
       style="fill:#1a9bce;fill-opacity:1"
       d="m 108.75043,41.111972 c -0.20632,0.0341 -0.83931,1.13778 -1.42188,2.48047 -4.33641,9.99442 -10.430202,21.4007 -19.591796,36.67773 -4.238287,7.06738 -7.403224,12.50469 -9.826172,16.96094 1.822283,9.703398 12.090975,38.501708 69.808598,38.800778 0.21875,-0.941 0.4173,-1.91311 0.59765,-2.91992 1.4296,-7.98064 0.0637,-16.69714 -4.23828,-27.04101 -1.90231,-4.57393 -5.10126,-10.515048 -10.2207,-18.984378 -2.53508,-4.1939 -4.75369,-7.87414 -4.92969,-8.17773 -0.176,-0.3036 -0.91084,-1.48074 -1.63281,-2.61524 -3.38149,-5.31369 -9.87929,-16.20297 -11.73242,-19.66211 -2.17315,-4.05648 -5.36302,-11.44647 -6.04297,-14 -0.22261,-0.836 -0.56408,-1.51953 -0.75977,-1.51953 -0.003,0 -0.006,-5.4e-4 -0.01,0 z" />
    <path
       id="path4"
       style="fill:#ffffff;fill-opacity:1"
       d="m 129.39886,105.7526 c 10e-4,-3.4e-4 0.003,2.3e-4 0.004,0 0.001,-1.1e-4 0.005,0 0.006,0 0.001,0 0.003,-1.1e-4 0.004,0 0.14184,0.0285 0.41595,0.95034 0.61132,2.07226 0.58968,3.38617 1.58703,6.18251 2.62891,7.36915 1.13188,1.28914 2.64169,1.81581 6.9375,2.42382 1.54066,0.21806 2.81367,0.47888 2.92969,0.59571 7.9e-4,9.3e-4 0.003,0.005 0.004,0.006 l 0.002,0.002 0.002,0.002 v 0.002 0.002 0.002 0.002 0.002 0.002 l -0.002,0.002 c -0.089,0.11703 -1.54147,0.43544 -3.30274,0.71875 -3.9064,0.62837 -5.96709,1.43636 -6.85937,2.68946 -0.80615,1.13214 -1.87995,4.35326 -2.34766,7.03906 -0.19122,1.09808 -0.45982,1.99944 -0.60156,2.02734 -0.001,1.1e-4 -0.005,0 -0.006,0 -0.001,0 -0.003,1.1e-4 -0.004,0 -0.14173,-0.0279 -0.4123,-0.92926 -0.60351,-2.02734 -0.46772,-2.6858 -1.54151,-5.90692 -2.34766,-7.03906 -0.89228,-1.2531 -2.95297,-2.06109 -6.85937,-2.68946 -1.76128,-0.28331 -3.21181,-0.59976 -3.30078,-0.71679 l -0.002,-0.002 -0.002,-0.002 v -0.002 -0.002 -0.002 -0.002 -0.002 -0.002 l 0.002,-0.002 c 6.4e-4,-9.2e-4 0.003,-0.005 0.004,-0.006 0.11602,-0.11683 1.39097,-0.3796 2.93164,-0.59766 4.2958,-0.60801 5.80561,-1.13468 6.9375,-2.42382 1.04188,-1.18664 2.03923,-3.98298 2.62891,-7.36915 0.19381,-1.11302 0.46273,-2.02996 0.60546,-2.07226 z" />
  </g>
</svg>
